<?xml version="1.0" standalone="no"?>
<!DOCTYPE svg PUBLIC "-//W3C//DTD SVG 20010904//EN"
 "http://www.w3.org/TR/2001/REC-SVG-20010904/DTD/svg10.dtd">
<svg version="1.0" xmlns="http://www.w3.org/2000/svg"
 width="404.000000pt" height="404.000000pt" viewBox="0 0 404.000000 404.000000"
 preserveAspectRatio="xMidYMid meet">
<metadata>
Created by potrace 1.13, written by Peter Selinger 2001-2015
</metadata>
<g transform="translate(0.000000,404.000000) scale(0.100000,-0.100000)"
fill="#ffffff" stroke="none">
<path d="M1895 4029 c-387 -21 -773 -165 -1097 -410 -106 -80 -297 -271 -377
-377 -219 -290 -346 -601 -401 -982 -50 -349 17 -765 179 -1105 108 -227 221
-387 400 -566 326 -326 721 -519 1185 -580 117 -15 472 -6 581 14 415 78 761
253 1055 534 336 320 548 743 611 1217 15 117 6 472 -14 581 -63 335 -190 625
-388 887 -80 106 -271 297 -377 377 -396 299 -851 437 -1357 410z m296 -169
c664 -66 1229 -461 1510 -1055 235 -499 235 -1083 0 -1580 -247 -521 -726
-902 -1285 -1021 -621 -132 -1251 54 -1700 502 -317 318 -497 709 -538 1166
-20 228 16 515 92 739 277 808 1083 1332 1921 1249z"/>
<path d="M1786 3545 c-440 -63 -800 -270 -1065 -613 -38 -49 -131 -201 -131
-214 0 -4 89 -8 199 -8 l199 0 17 26 c35 53 182 199 260 257 137 102 319 183
477 211 139 25 197 28 344 17 279 -21 506 -105 713 -263 76 -59 199 -184 241
-246 l35 -51 188 -1 c103 0 187 2 187 5 0 15 -110 196 -162 267 -77 105 -230
256 -337 332 -168 120 -397 218 -621 267 -125 27 -401 34 -544 14z"/>
<path d="M1345 2118 c-126 -392 -246 -768 -268 -835 -21 -68 -43 -123 -47
-123 -17 0 -136 183 -186 285 -93 191 -131 370 -121 570 8 163 39 290 112 458
7 16 -6 17 -183 17 l-190 0 -21 -87 c-83 -356 -76 -649 24 -949 84 -253 242
-489 458 -682 82 -74 244 -189 253 -180 2 3 124 360 271 794 146 434 269 792
272 796 3 4 31 -53 61 -127 l55 -134 80 -6 c44 -3 120 -5 170 -3 l89 3 51 132
c27 73 52 133 55 133 3 0 129 -351 279 -779 151 -429 277 -785 281 -792 17
-27 297 203 415 340 357 416 460 919 298 1454 l-26 87 -185 0 c-171 0 -184 -1
-177 -17 145 -367 138 -736 -20 -1055 -61 -123 -174 -284 -189 -267 -2 2 -122
381 -267 842 l-264 837 -135 -2 -135 -3 -71 -184 c-39 -101 -75 -191 -80 -199
-7 -11 -30 40 -85 184 l-75 199 -135 3 -134 3 -230 -713z"/>
</g>
</svg>
